# xmcd CD database file
#
# Track frame offsets:
#	150
#	15701
#	31420
#	46971
#
# Disc length: 831 seconds
#
# Revision: 0
# Processed by: cddbd v1.5.1PL2 Copyright (c) Steve Scherf et al.
# Submitted via: CDex 1.51
#
DISCID=28033d04
DTITLE=練馬大根ブラザーズ - マ・ジ・ヤ・バ／ベリマッ！
DYEAR=2006
DGENRE=Anime
TTITLE0=マ・ジ・ヤ・バ
TTITLE1=ベリマッ！
TTITLE2=マ・ジ・ヤ・バ (オリジナル・カラオケ)
TTITLE3=ベリマッ！ (オリジナル・カラオケ)
EXTD=YEAR: 2006
EXTT0=
EXTT1=
EXTT2=
EXTT3=
PLAYORDER=
